HIERARCHY
ROOT Hips
{
  OFFSET -35.2597 29.1586 114.425
  CHANNELS 6 Xposition Yposition Zposition Zrotation Xrotation Yrotation
  JOINT LeftUpLeg
  {
    OFFSET 8.64259 1.95398 -2.38835
    CHANNELS 3 Zrotation Xrotation Yrotation
    JOINT LeftLeg
    {
      OFFSET 43.7702 0 0
      CHANNELS 3 Zrotation Xrotation Yrotation
      JOINT LeftFoot
      {
        OFFSET 40.6238 0 0
        CHANNELS 3 Zrotation Xrotation Yrotation
        JOINT LeftToeBase
        {
          OFFSET 12.7242 0 0
          CHANNELS 3 Zrotation Xrotation Yrotation
          End Site
          {
            OFFSET 0 0 0
          }
        }
      }
    }
  }
  JOINT RightUpLeg
  {
    OFFSET -8.2249 1.95398 -2.59336
    CHANNELS 3 Zrotation Xrotation Yrotation
    JOINT RightLeg
    {
      OFFSET 43.5653 0 0
      CHANNELS 3 Zrotation Xrotation Yrotation
      JOINT RightFoot
      {
        OFFSET 40.6238 0 0
        CHANNELS 3 Zrotation Xrotation Yrotation
        JOINT RightToeBase
        {
          OFFSET 12.7242 0 0
          CHANNELS 3 Zrotation Xrotation Yrotation
          End Site
          {
            OFFSET 0 0 0
          }
        }
      }
    }
  }
  JOINT Spine
  {
    OFFSET 0.165834 0.87714 6.61349
    CHANNELS 3 Zrotation Xrotation Yrotation
    JOINT Spine1
    {
      OFFSET 7.38963 1.71661e-005 0
      CHANNELS 3 Zrotation Xrotation Yrotation
      JOINT Spine2
      {
        OFFSET 11.9445 1.14441e-005 0
        CHANNELS 3 Zrotation Xrotation Yrotation
        JOINT Spine3
        {
          OFFSET 14.7254 4.19617e-005 0
          CHANNELS 3 Zrotation Xrotation Yrotation
          JOINT Spine4
          {
            OFFSET 10.9679 0 0
            CHANNELS 3 Zrotation Xrotation Yrotation
            JOINT RightShoulder
            {
              OFFSET 2.46616 -1.6653 3.69651
              CHANNELS 3 Zrotation Xrotation Yrotation
              JOINT RightArm
              {
                OFFSET 13.0012 0 0
                CHANNELS 3 Zrotation Xrotation Yrotation
                JOINT RightForeArm
                {
                  OFFSET 28.7848 1.62311e-005 0
                  CHANNELS 3 Zrotation Xrotation Yrotation
                  JOINT RightHand
                  {
                    OFFSET 26.5688 1.62095e-005 0
                    CHANNELS 3 Zrotation Xrotation Yrotation
                    End Site
                    {
                      OFFSET 0 0 0
                    }
                  }
                }
              }
            }
            JOINT LeftShoulder
            {
              OFFSET 2.38034 -1.29275 -3.7523
              CHANNELS 3 Zrotation Xrotation Yrotation
              JOINT LeftArm
              {
                OFFSET 16.3182 6.07031e-005 0
                CHANNELS 3 Zrotation Xrotation Yrotation
                JOINT LeftForeArm
                {
                  OFFSET 27.0901 0 0
                  CHANNELS 3 Zrotation Xrotation Yrotation
                  JOINT LeftHand
                  {
                    OFFSET 24.5451 1.51738e-005 0
                    CHANNELS 3 Zrotation Xrotation Yrotation
                    End Site
                    {
                      OFFSET 0 0 0
                    }
                  }
                }
              }
            }
            JOINT Neck
            {
              OFFSET 5.0226 -0.0266342 0
              CHANNELS 3 Zrotation Xrotation Yrotation
              JOINT Head
              {
                OFFSET 6.69364 2.86102e-005 0
                CHANNELS 3 Zrotation Xrotation Yrotation
                End Site
                {
                  OFFSET 0 0 0
                }
              }
            }
          }
        }
      }
    }
  }
}
MOTION
Frames:	10
Frame Time:	0.0416667
-3.18252 98.7383 89.0723 -138.478 -81.2828 -139.44 -176.948 0.606504 83.4117 -22.7082 17.8128 -0.444773 74.402 10.6317 1.7554 11.952 -13.3813 5.9766 177.823 16.7878 89.0155 -50.3149 -3.09063 -4.11708 71.3282 -7.8745 -5.43932 17.2387 2.54074 6.02937 0.410702 8.04559 -89.9533 10.7829 0.839409 0.0150801 -0.887813 0.83926 -0.0218909 -23.425 0.796068 0.266678 -3.41234 0.796066 0.266669 87.4748 -33.4733 -110.229 44.1162 8.61671 0.976673 -5.29387 -41.9221 -5.44635 -21.159 1.4569 -13.2691 -85.3414 -53.7289 86.2139 -15.9867 -17.7285 -36.1462 4.652 54.2242 -5.7365 4.89108 -0.309404 -7.81736 -6.80061 0.989229 -2.58232 -3.33974 1.28258 -4.41565 
-4.74375 98.7474 94.3167 -161.18 -82.9909 -160.747 -175.873 -3.68313 86.1753 -21.7795 22.347 0.43266 77.0128 12.3864 1.95157 10.4118 -14.4018 5.9541 178.28 18.3009 90.6948 -33.5917 -4.44101 -2.66441 68.0776 -5.89064 -3.61498 19.2556 2.66747 3.74077 -0.0939113 8.06896 -90.1623 10.7354 -0.261815 -0.29848 -0.935559 -0.274702 -0.286671 -23.4706 -0.160008 -0.363369 -3.45792 -0.160005 -0.363363 87.5981 -34.0523 -109.766 42.4866 9.92285 4.23596 -5.18883 -40.3443 -5.38582 -19.3589 1.50467 -14.3457 -85.8872 -49.0476 84.763 -17.9959 -16.3477 -44.1664 4.09414 48.5005 -5.16764 8.66886 -0.695944 -10.548 -6.81832 1.17112 -4.90709 -3.3977 1.59915 -1.8354 
-6.14252 98.0203 100.248 -177.096 -82.8809 -176.009 -173.776 -8.72362 89.3037 -20.5845 25.7401 0.20606 79.9645 14.1525 0.607275 13.4882 -14.164 8.42 177.673 16.4916 91.8598 -14.4813 -8.28676 -0.652961 63.6548 -3.79815 -2.1033 22.6017 1.01789 4.60127 -0.431575 8.12495 -90.2729 10.6218 -0.985035 -0.453566 -1.04888 -1.00405 -0.409781 -23.5856 -0.803187 -0.728652 -3.57293 -0.803184 -0.728652 87.4693 -35.2549 -109.525 40.6955 11.1 7.25625 -5.23529 -41.0485 -5.41233 -20.0091 1.61859 -14.7036 -86.4094 -47.6127 83.7391 -18.3954 -16.0438 -51.0709 3.80825 45.5675 -4.8558 14.5216 -1.52443 -13.9998 -6.45079 1.3809 -6.61613 -3.86468 1.93618 -0.198953 
-7.63907 96.5432 106.79 -177.871 -82.3538 -176.041 -171.05 -14.251 92.7081 -19.2655 27.4626 -0.354404 83.5691 16.9513 0.365695 14.7413 -13.4127 8.58413 178.325 16.7426 93.9529 -7.39595 -8.7318 0.227547 63.8177 -3.66789 -2.06311 23.4499 0.688704 4.59258 -0.590738 8.16537 -90.3401 10.5398 -1.3328 -0.556632 -1.13056 -1.35601 -0.497433 -23.6688 -1.1039 -0.931489 -3.65617 -1.10389 -0.931489 87.1151 -37.4331 -109.326 38.4873 12.0395 9.00043 -5.28119 -41.7317 -5.43898 -18.3476 1.4715 -14.6742 -86.4926 -47.7324 83.6291 -18.8707 -15.5437 -55.9793 3.68708 42.3899 -4.75754 17.9805 -2.46631 -17.5439 -6.46129 1.82284 -7.70826 -3.92494 2.44251 0.750714 
-9.1258 94.925 114.227 -179.914 -81.9296 -176.71 -167.96 -19.0021 96.9851 -19.7649 28.0084 -0.24519 86.6037 19.249 0.0209812 14.3491 -13.5379 8.38567 178.882 16.9702 96.5386 -11.3472 -9.32628 0.854778 62.9935 -2.91497 -1.57322 23.8845 0.926829 3.4036 -0.763768 8.12142 -90.5198 10.6242 -1.7602 -0.873731 -1.04577 -1.79694 -0.79541 -23.5853 -1.41624 -1.36239 -3.57265 -1.41624 -1.36239 87.2647 -38.0434 -108.833 37.7277 12.483 10.4266 -5.2462 -41.2108 -5.41865 -15.9452 1.38772 -15.5796 -86.3113 -49.3614 84.1648 -20.0655 -14.2883 -57.0314 3.6248 41.0013 -4.70413 19.6685 -3.35629 -21.0259 -6.40548 2.4282 -6.64869 -4.62951 2.97532 0.205908 
-10.3347 94.4654 122.487 -179.13 -81.4586 -174.488 -167.014 -22.8129 99.0125 -21.2939 26.6401 1.75565 79.1436 14.2402 1.37115 28.6091 -5.29664 10.1968 178.63 19.5095 98.6634 -22.9716 -10.1601 1.19747 61.0264 0.388623 -2.95545 19.3269 2.10683 5.11021 -0.893984 7.99922 -90.7133 10.8642 -2.10954 -1.2206 -0.805516 -2.16121 -1.12656 -23.3453 -1.64521 -1.79819 -3.33267 -1.64521 -1.79819 87.661 -38.1566 -108.097 38.2966 12.4594 11.1332 -5.13609 -39.5225 -5.35654 -14.3574 1.25845 -15.7596 -86.3912 -51.3685 84.3506 -21.8921 -12.6328 -52.9693 3.83284 44.5565 -4.90633 19.0222 -3.03702 -19.8847 -6.73861 2.82419 -5.34834 -5.84059 3.23296 0.602431 
-11.3853 94.4888 130.584 -172.526 -80.5741 -166.354 -167.464 -20.7407 99.7453 -32.5263 24.7945 3.53956 67.9232 5.77259 1.50762 37.5297 0.53267 9.43614 178.052 17.6633 100.653 -30.284 -9.46773 2.05024 62.6408 -0.660797 -2.53019 16.5443 3.48295 4.42155 -0.785452 7.91577 -90.9537 11.0245 -2.00554 -1.70583 -0.645927 -2.07866 -1.61592 -23.1789 -1.4003 -2.22958 -3.16623 -1.40029 -2.22958 87.6539 -37.5509 -108.329 38.7417 12.3152 10.9553 -5.09875 -38.9319 -5.33602 -12.6358 1.20171 -16.7102 -86.5177 -52.8294 84.3822 -24.3971 -10.9273 -44.7626 4.28501 50.4135 -5.36192 12.0169 -1.67461 -16.7811 -7.62406 2.95425 -2.82843 -6.12575 3.17627 -0.284922 
-12.5035 94.9746 137.075 -173.01 -79.6626 -166.181 -168.452 -11.0154 101.416 -49.6177 26.4536 4.24409 52.8752 -4.91202 -2.3959 20.2471 -7.79973 5.49282 177.842 13.389 101.898 -32.7345 -9.5762 2.41375 66.901 -3.92687 -3.49141 17.4374 2.9642 4.81235 -0.655549 8.02156 -91.0383 10.8124 -1.78461 -1.89906 -0.858561 -1.86644 -1.8187 -23.3873 -1.13153 -2.34743 -3.37468 -1.13154 -2.34744 87.1698 -37.2709 -109.288 38.9038 11.719 7.82117 -5.12468 -39.3452 -5.35007 -12.7834 1.27628 -17.2741 -86.5995 -53.3575 84.3412 -25.6989 -10.6572 -36.2163 5.11535 58.1422 -6.19987 -2.08129 -0.142509 -13.7061 -6.93017 2.92996 -1.34288 -6.26982 3.07101 -0.796293 
-13.1376 95.6902 142.785 -176.507 -79.9322 -170.207 -170.848 0.500239 100.09 -62.385 22.1778 4.31744 57.8819 -1.61167 -1.47621 17.0466 -10.2912 6.33839 177.23 8.70394 101.235 -31.488 -9.96721 2.82555 69.7276 -5.97713 -3.70839 19.2277 2.32342 4.63527 -0.424617 8.07905 -90.9802 10.7019 -1.29719 -1.83013 -0.969638 -1.37646 -1.7713 -23.4963 -0.687332 -2.13525 -3.48367 -0.687328 -2.13525 86.9875 -36.8146 -109.786 39.1382 10.7717 3.07717 -5.20295 -40.557 -5.39386 -15.7246 1.52024 -16.7238 -86.8655 -54.4955 84.1266 -26.6752 -10.9907 -26.1087 5.4723 60.5742 -6.56029 -2.32864 -0.0910397 -5.75827 -6.39363 2.31615 -0.749924 -5.56525 2.40525 -0.752154 
-13.5206 96.6254 148.134 -169.01 -80.5678 -164.512 -172.817 10.1216 96.1453 -63.0577 13.1244 3.30975 67.9983 5.72454 1.77267 13.7938 -11.612 5.22657 177.001 3.73955 99.4157 -27.9598 -11.5854 2.14196 71.5989 -7.23529 -3.1714 20.7827 1.84582 4.27372 0.017655 8.05396 -90.7733 10.763 -0.321537 -1.50812 -0.908795 -0.387592 -1.49252 -23.4369 0.146525 -1.53503 -3.42422 0.14652 -1.53504 86.8294 -36.2184 -110.301 38.141 10.1979 -1.88705 -5.32747 -42.4097 -5.46583 -17.8606 1.72006 -16.5915 -87.3122 -56.2861 83.7618 -24.871 -12.8751 -15.0226 5.07865 57.8613 -6.16534 2.07589 -0.141056 -5.5052 -6.57289 1.38059 -0.69078 -5.01368 1.44345 -0.229002 
